<svg width="34" height="34" viewBox="0 0 34 34" fill="none" xmlns="http://www.w3.org/2000/svg">
<circle opacity="0.2" cx="17" cy="17" r="16" fill="#F5D06F"/>
<path d="M20.5625 15.5C20.5625 13.2656 18.1758 11.4375 15.2812 11.4375C12.3613 11.4375 10 13.2656 10 15.5C10 16.3887 10.3555 17.1758 10.9648 17.8359C10.6094 18.623 10.0508 19.2324 10.0508 19.2324C10 19.2832 9.97461 19.3848 10 19.4609C10.0508 19.5371 10.1016 19.5625 10.2031 19.5625C11.1172 19.5625 11.8789 19.2578 12.4375 18.9277C13.25 19.334 14.2402 19.5625 15.2812 19.5625C18.1758 19.5625 20.5625 17.7598 20.5625 15.5ZM23.6602 21.0859C24.2441 20.4258 24.625 19.6387 24.625 18.75C24.625 17.0742 23.2539 15.6016 21.3242 14.9922C21.3496 15.1699 21.375 15.3477 21.375 15.5C21.375 18.1914 18.6328 20.375 15.2812 20.375C15.002 20.375 14.7227 20.375 14.4688 20.3496C15.2559 21.7969 17.1348 22.8125 19.3438 22.8125C20.3848 22.8125 21.3496 22.584 22.1621 22.1777C22.7207 22.5078 23.4824 22.8125 24.4219 22.8125C24.498 22.8125 24.5742 22.7871 24.5996 22.7109C24.625 22.6348 24.625 22.5332 24.5488 22.4824C24.5488 22.4824 23.9902 21.873 23.6602 21.0859Z" fill="#F5D06F"/>
</svg>
