<svg width="26" height="26" viewBox="0 0 26 26" fill="none" xmlns="http://www.w3.org/2000/svg">
<path d="M15.3419 13.1249C14.7921 12.439 13.9473 11.9999 12.9999 11.9999C11.343 11.9999 9.99988 13.343 9.99988 14.9999C9.99988 16.6567 11.343 17.9999 12.9999 17.9999C13.9473 17.9999 14.7921 17.5607 15.3419 16.8749C15.7536 16.3613 15.9999 15.7093 15.9999 14.9999C15.9999 14.2904 15.7536 13.6385 15.3419 13.1249ZM15.3419 13.1249L18.9999 9.49988" stroke="#4B545D" stroke-width="1.44455" stroke-linecap="round"/>
<path d="M22.3681 22.5C24.0149 20.4456 25 17.8378 25 15C25 8.37258 19.6274 3 13 3C6.37258 3 1 8.37258 1 15C1 17.8378 1.98508 20.4456 3.63194 22.5" stroke="#4B545D" stroke-width="1.44455" stroke-linecap="round"/>
</svg>
