<svg width="26" height="26" viewBox="0 0 26 26" fill="none" xmlns="http://www.w3.org/2000/svg">
<path d="M4.28965 21.6704L3.71936 22.2297C4.02382 22.5401 4.52067 22.55 4.83723 22.2519L4.28965 21.6704ZM1.22131 16.2879L0.935955 15.5419C0.554115 15.6879 0.344181 16.0987 0.449503 16.4937L1.22131 16.2879ZM1.35781 9.52597L0.595569 9.28717C0.473105 9.67807 0.666192 10.0983 1.04258 10.2599L1.35781 9.52597ZM2.3273 7.26174L3.02617 7.64855L3.02637 7.64819L2.3273 7.26174ZM4.58054 4.33731L4.96698 3.63824C4.66173 3.4695 4.28229 3.51833 4.0297 3.75885L4.58054 4.33731ZM4.62525 4.36203L5.01192 3.66308L5.0117 3.66296L4.62525 4.36203ZM10.0373 1.34202L9.84372 0.567056C9.50173 0.652479 9.25617 0.951971 9.23942 1.30407L10.0373 1.34202ZM15.7997 1.31166L16.598 1.33875C16.6109 0.959088 16.3546 0.622873 15.9851 0.534701L15.7997 1.31166ZM17.6822 4.62986L18.0688 3.93089L18.0685 3.9307L17.6822 4.62986ZM21.4935 4.45918L22.0528 3.88893C21.7816 3.62292 21.3606 3.58471 21.0459 3.79756L21.4935 4.45918ZM24.5326 9.355L24.9891 10.0105C25.2784 9.80908 25.4014 9.4418 25.2919 9.10674L24.5326 9.355ZM24.8985 15.569L25.6812 15.7286C25.7518 15.3824 25.5865 15.0309 25.2749 14.8645L24.8985 15.569ZM23.6205 19.0326L22.9218 18.6455L22.9214 18.6461L23.6205 19.0326ZM22.2188 21.0578L21.7649 21.7152C22.1019 21.9479 22.5603 21.888 22.8263 21.5765L22.2188 21.0578ZM16.5652 24.77L16.8014 25.533C17.192 25.4121 17.4282 25.0159 17.3488 24.6148L16.5652 24.77ZM10.3752 25.0345L9.59154 24.8801C9.50749 25.3067 9.78012 25.7222 10.205 25.8149L10.3752 25.0345ZM10.9142 16.8734L11.3007 16.1744L10.9142 16.8734ZM15.034 9.42081L14.6476 10.1199L15.034 9.42081ZM4.85994 21.1111C3.48622 19.7104 2.49857 17.9779 1.99312 16.0822L0.449503 16.4937C1.02601 18.6559 2.15251 20.632 3.71936 22.2297L4.85994 21.1111ZM1.50667 17.034C2.3335 16.7178 3.04716 16.162 3.55634 15.4379L2.24951 14.519C1.9232 14.9831 1.46584 15.3392 0.935955 15.5419L1.50667 17.034ZM3.55634 15.4379C4.06552 14.7137 4.34705 13.8541 4.36492 12.969L2.7677 12.9368C2.75625 13.504 2.57582 14.0549 2.24951 14.519L3.55634 15.4379ZM4.36492 12.969C4.38279 12.084 4.13617 11.2137 3.65663 10.4696L2.31378 11.335C2.6211 11.8119 2.77915 12.3696 2.7677 12.9368L4.36492 12.969ZM3.65663 10.4696C3.17709 9.7255 2.48643 9.14139 1.67304 8.79204L1.04258 10.2599C1.56385 10.4838 2.00646 10.8581 2.31378 11.335L3.65663 10.4696ZM2.12005 9.76478C2.35005 9.03065 2.65363 8.32164 3.02617 7.64855L1.62843 6.87493C1.20378 7.64217 0.857735 8.45036 0.595569 9.28717L2.12005 9.76478ZM3.02637 7.64819C3.60176 6.60732 4.31522 5.69295 5.13137 4.91577L4.0297 3.75885C3.09662 4.64737 2.28289 5.69103 1.62823 6.8753L3.02637 7.64819ZM4.19409 5.03638L4.23881 5.0611L5.0117 3.66296L4.96698 3.63824L4.19409 5.03638ZM4.23858 5.06098C4.90013 5.42695 5.64403 5.61828 6.40006 5.61689L6.39713 4.01935C5.91262 4.02024 5.43588 3.89762 5.01192 3.66308L4.23858 5.06098ZM6.40006 5.61689C7.15609 5.61551 7.89929 5.42145 8.55948 5.05305L7.78102 3.658C7.35793 3.8941 6.88164 4.01846 6.39713 4.01935L6.40006 5.61689ZM8.55948 5.05305C9.21968 4.68465 9.77509 4.15406 10.1733 3.51138L8.81523 2.67001C8.56006 3.08187 8.20412 3.42191 7.78102 3.658L8.55948 5.05305ZM10.1733 3.51138C10.5714 2.8687 10.7992 2.13515 10.8352 1.37997L9.23942 1.30407C9.2164 1.78803 9.07041 2.25814 8.81523 2.67001L10.1733 3.51138ZM10.2309 2.11698C11.9971 1.67581 13.8435 1.66608 15.6143 2.08862L15.9851 0.534701C13.965 0.0526742 11.8586 0.0637718 9.84372 0.567056L10.2309 2.11698ZM15.0013 1.28457C14.9735 2.10478 15.1731 2.9167 15.5781 3.6305L16.9676 2.84218C16.7081 2.38473 16.5801 1.8644 16.598 1.33875L15.0013 1.28457ZM15.5781 3.6305C15.9831 4.34431 16.5776 4.93216 17.296 5.32903L18.0685 3.9307C17.6081 3.67636 17.2271 3.29963 16.9676 2.84218L15.5781 3.6305ZM17.2956 5.32884C18.0138 5.72606 18.8278 5.91687 19.6477 5.88015L19.5762 4.2842C19.0508 4.30773 18.5291 4.18545 18.0688 3.93089L17.2956 5.32884ZM19.6477 5.88015C20.4675 5.84343 21.2612 5.58062 21.941 5.12079L21.0459 3.79756C20.6103 4.09225 20.1016 4.26067 19.5762 4.2842L19.6477 5.88015ZM20.9341 5.02942C22.2338 6.3042 23.2076 7.87296 23.7734 9.60327L25.2919 9.10674C24.6464 7.13281 23.5354 5.34318 22.0528 3.88893L20.9341 5.02942ZM24.0762 8.69949C23.4514 9.13455 22.9487 9.7227 22.6162 10.4076L24.0534 11.1052C24.2665 10.6663 24.5887 10.2893 24.9891 10.0105L24.0762 8.69949ZM22.6162 10.4076C22.2838 11.0926 22.1327 11.8514 22.1775 12.6115L23.7722 12.5176C23.7436 12.0305 23.8404 11.5442 24.0534 11.1052L22.6162 10.4076ZM22.1775 12.6115C22.2222 13.3715 22.4613 14.1073 22.8718 14.7485L24.2172 13.8871C23.9541 13.4762 23.8009 13.0046 23.7722 12.5176L22.1775 12.6115ZM22.8718 14.7485C23.2824 15.3897 23.8506 15.9148 24.5222 16.2736L25.2749 14.8645C24.8445 14.6346 24.4803 14.2981 24.2172 13.8871L22.8718 14.7485ZM24.1158 15.4095C23.8849 16.5426 23.4822 17.6339 22.9218 18.6455L24.3192 19.4196C24.9584 18.2658 25.4177 17.0211 25.6812 15.7286L24.1158 15.4095ZM22.9214 18.6461C22.5415 19.3334 22.1011 19.9655 21.6113 20.5392L22.8263 21.5765C23.3854 20.9216 23.8873 20.201 24.3196 19.419L22.9214 18.6461ZM22.6726 20.4005C21.9441 19.8976 21.0822 19.6234 20.197 19.6131L20.1784 21.2105C20.7457 21.2171 21.2981 21.3928 21.7649 21.7152L22.6726 20.4005ZM20.197 19.6131C19.3118 19.6028 18.4437 19.8568 17.7037 20.3427L18.5805 21.6781C19.0548 21.3667 19.6111 21.2039 20.1784 21.2105L20.197 19.6131ZM17.7037 20.3427C16.9637 20.8285 16.3855 21.5242 16.0431 22.3405L17.5163 22.9584C17.7358 22.4353 18.1063 21.9895 18.5805 21.6781L17.7037 20.3427ZM16.0431 22.3405C15.7007 23.1568 15.6097 24.0568 15.7816 24.9252L17.3488 24.6148C17.2386 24.0583 17.2969 23.4816 17.5163 22.9584L16.0431 22.3405ZM16.329 24.007C14.4548 24.5872 12.4624 24.6724 10.5455 24.2541L10.205 25.8149C12.3912 26.292 14.6638 26.1949 16.8014 25.533L16.329 24.007ZM11.159 25.1889C11.3411 24.2641 11.225 23.3053 10.8272 22.4508L9.3789 23.125C9.63387 23.6727 9.70833 24.2873 9.59154 24.8801L11.159 25.1889ZM10.8272 22.4508C10.4295 21.5963 9.77064 20.8901 8.94572 20.4341L8.17283 21.8322C8.70162 22.1245 9.12393 22.5772 9.3789 23.125L10.8272 22.4508ZM8.94572 20.4341C8.1208 19.9781 7.17238 19.7957 6.23718 19.9134L6.43663 21.4985C7.0361 21.423 7.64405 21.5399 8.17283 21.8322L8.94572 20.4341ZM6.23718 19.9134C5.30197 20.0311 4.42829 20.4427 3.74206 21.0889L4.83723 22.2519C5.27712 21.8377 5.83716 21.5739 6.43663 21.4985L6.23718 19.9134ZM10.5278 17.5725C11.1089 17.8938 11.7477 18.0974 12.4075 18.1718L12.5865 16.5843C12.1352 16.5334 11.6982 16.3941 11.3007 16.1744L10.5278 17.5725ZM12.4075 18.1718C13.0674 18.2462 13.7354 18.1899 14.3735 18.0062L13.9314 16.471C13.4949 16.5967 13.0379 16.6352 12.5865 16.5843L12.4075 18.1718ZM14.3735 18.0062C15.0116 17.8224 15.6073 17.5147 16.1265 17.1008L15.1305 15.8517C14.7754 16.1348 14.3679 16.3453 13.9314 16.471L14.3735 18.0062ZM16.1265 17.1008C16.6457 16.6868 17.0783 16.1746 17.3995 15.5935L16.0014 14.8206C15.7816 15.2181 15.4857 15.5685 15.1305 15.8517L16.1265 17.1008ZM17.3995 15.5935C17.7208 15.0123 17.9244 14.3736 17.9988 13.7137L16.4113 13.5347C16.3604 13.9861 16.2211 14.423 16.0014 14.8206L17.3995 15.5935ZM17.9988 13.7137C18.0732 13.0539 18.0169 12.3858 17.8332 11.7477L16.298 12.1898C16.4237 12.6263 16.4622 13.0833 16.4113 13.5347L17.9988 13.7137ZM17.8332 11.7477C17.6494 11.1096 17.3417 10.514 16.9278 9.99478L15.6787 10.9907C15.9618 11.3459 16.1723 11.7534 16.298 12.1898L17.8332 11.7477ZM16.9278 9.99478C16.5138 9.47558 16.0016 9.043 15.4205 8.72174L14.6476 10.1199C15.0451 10.3396 15.3955 10.6356 15.6787 10.9907L16.9278 9.99478ZM15.4205 8.72174C14.2468 8.07293 12.8634 7.91694 11.5747 8.28809L12.0169 9.82324C12.8984 9.56935 13.8447 9.67606 14.6476 10.1199L15.4205 8.72174ZM11.5747 8.28809C10.286 8.65923 9.19755 9.5271 8.54874 10.7008L9.94689 11.4737C10.3907 10.6708 11.1353 10.0771 12.0169 9.82324L11.5747 8.28809ZM8.54874 10.7008C7.89994 11.8745 7.74395 13.2578 8.11509 14.5465L9.65024 14.1044C9.39635 13.2229 9.50306 12.2766 9.94689 11.4737L8.54874 10.7008ZM8.11509 14.5465C8.48623 15.8352 9.35411 16.9237 10.5278 17.5725L11.3007 16.1744C10.4978 15.7305 9.90412 14.986 9.65024 14.1044L8.11509 14.5465Z" fill="#4B545D"/>
</svg>
