<svg width="26" height="20" viewBox="0 0 26 20" fill="none" xmlns="http://www.w3.org/2000/svg">
<path d="M7.54519 5.72852C8.56791 5.72852 9.41532 6.57592 9.41532 7.59864C9.41532 8.65059 8.56791 9.46877 7.54519 9.46877C6.49324 9.46877 5.67506 8.65059 5.67506 7.59864C5.67506 6.57592 6.49324 5.72852 7.54519 5.72852ZM10.8179 13.4657C10.8179 13.7871 10.5257 14.0208 10.1458 14.0208H4.91532C4.56467 14.0208 4.27246 13.7871 4.27246 13.4657V12.9105C4.27246 11.9754 5.14908 11.2157 6.23025 11.2157H6.37636C6.72701 11.391 7.10688 11.4494 7.54519 11.4494C7.95428 11.4494 8.33415 11.391 8.6848 11.2157H8.8309C9.91207 11.2157 10.8179 11.9754 10.8179 12.9105V13.4657Z" stroke="#4B545D" stroke-width="1.4"/>
<path d="M12.6925 10.6626C12.3612 10.6626 12.0925 10.9313 12.0925 11.2626C12.0925 11.594 12.3612 11.8626 12.6925 11.8626V10.6626ZM13.5162 11.0937V10.4937H13.3746L13.2479 10.557L13.5162 11.0937ZM12.8443 12.5213C12.5129 12.5213 12.2443 12.7899 12.2443 13.1213C12.2443 13.4526 12.5129 13.7213 12.8443 13.7213V12.5213ZM12.6925 7.34463C13.1004 7.34463 13.4443 7.6885 13.4443 8.09635H14.6443C14.6443 7.02576 13.7631 6.14463 12.6925 6.14463V7.34463ZM13.4443 8.09635C13.4443 8.51922 13.1065 8.84807 12.6925 8.84807V10.0481C13.757 10.0481 14.6443 9.19416 14.6443 8.09635H13.4443ZM12.6925 8.84807C12.2636 8.84807 11.9408 8.52532 11.9408 8.09635H10.7408C10.7408 9.18806 11.6008 10.0481 12.6925 10.0481V8.84807ZM11.9408 8.09635C11.9408 7.68237 12.2697 7.34463 12.6925 7.34463V6.14463C11.5947 6.14463 10.7408 7.03189 10.7408 8.09635H11.9408ZM14.458 12.72C14.458 12.6851 14.4664 12.648 14.4834 12.6138C14.4999 12.5806 14.5208 12.5576 14.5382 12.5434C14.5717 12.5159 14.5895 12.5213 14.5723 12.5213V13.7213C15.06 13.7213 15.658 13.3906 15.658 12.72H14.458ZM12.6925 11.8626C13.0439 11.8626 13.4198 11.8127 13.7846 11.6303L13.2479 10.557C13.1058 10.6281 12.9325 10.6626 12.6925 10.6626V11.8626ZM13.5162 11.6937H13.6218V10.4937H13.5162V11.6937ZM13.6218 11.6937C14.1681 11.6937 14.458 12.0628 14.458 12.3187H15.658C15.658 11.2228 14.6385 10.4937 13.6218 10.4937V11.6937ZM14.458 12.3187V12.72H15.658V12.3187H14.458ZM14.5723 12.5213H12.8443V13.7213H14.5723V12.5213Z" fill="#4B545D"/>
<rect x="1" y="1" width="24" height="18" rx="2" stroke="#4B545D" stroke-width="1.4"/>
<path d="M17.3633 9.45459H20.636" stroke="#4B545D" stroke-width="1.4" stroke-linecap="round"/>
<path d="M17.3633 12.1816H21.7269" stroke="#4B545D" stroke-width="1.4" stroke-linecap="round"/>
</svg>
