<svg width="26" height="26" viewBox="0 0 26 26" fill="none" xmlns="http://www.w3.org/2000/svg">
<circle cx="6.0403" cy="10.3067" r="1.34694" fill="#3B74A5"/>
<circle cx="10.0814" cy="10.3066" r="1.34694" fill="#3B74A5"/>
<circle cx="14.1223" cy="10.3066" r="1.34694" fill="#3B74A5"/>
<path d="M10.1894 18.3788C14.7123 18.3788 18.3788 14.7123 18.3788 10.1894C18.3788 5.66651 14.7123 2 10.1894 2C5.66651 2 2 5.66651 2 10.1894C2 11.8626 2.50178 13.4186 3.36308 14.7151C3.41158 15.2898 3.20686 16.8271 2 18.3788C3.07825 18.6241 5.55781 18.8257 6.85003 17.6692C7.86986 18.1252 9.00002 18.3788 10.1894 18.3788Z" stroke="#3B74A5" stroke-width="1.45" stroke-linecap="round" stroke-linejoin="round"/>
<path d="M21.9783 10.2071C23.2372 11.6471 24 13.5319 24 15.5949C24 17.2681 23.4982 18.8241 22.6369 20.1206C22.5884 20.6953 22.7931 22.2326 24 23.7843C22.9217 24.0296 20.4422 24.2312 19.15 23.0747C18.1301 23.5307 17 23.7843 15.8106 23.7843C13.6758 23.7843 11.7317 22.9674 10.274 21.6292" stroke="#3B74A5" stroke-width="1.45" stroke-linecap="round" stroke-linejoin="round"/>
</svg>
