<svg width="19" height="22" viewBox="0 0 19 22" fill="none" xmlns="http://www.w3.org/2000/svg">
<path d="M17.9157 17.1372L16.4752 14.8417C16.3311 14.5906 16.0078 14.4835 15.7207 14.5917L12.8502 15.746C12.599 15.8542 12.4559 16.1058 12.4743 16.3751L12.6754 18.3676C10.6659 19.0894 8.38581 19.1115 6.31978 18.3792L6.51363 16.386C6.53109 16.1166 6.387 15.8655 6.13545 15.7583L3.26073 14.6145C2.97327 14.5073 2.66829 14.6335 2.50713 14.8672L1.07502 17.1679C0.931848 17.4195 0.968281 17.7067 1.18412 17.9218C5.78871 22.5096 13.2396 22.5139 17.8453 17.8913C18.0424 17.6935 18.0598 17.3882 17.9157 17.1372Z" fill="#4B545D"/>
<path d="M8.08792 2.00331C8.08792 2.7565 8.6985 3.36708 9.45169 3.36708C10.2049 3.36708 10.8155 2.7565 10.8155 2.00331C10.8155 1.25012 10.2049 0.639542 9.45169 0.639542C8.6985 0.639542 8.08792 1.25012 8.08792 2.00331ZM14.5415 0.639542C13.7883 0.639542 13.1778 1.25012 13.1778 2.00331C13.1778 2.7565 13.7883 3.36708 14.5415 3.36708C15.2947 3.36708 15.9053 2.7565 15.9053 2.00331C15.9053 1.25012 15.2947 0.639542 14.5415 0.639542ZM2.99515 2.00331C2.99515 2.7565 3.60573 3.36708 4.35892 3.36708C5.11211 3.36708 5.72269 2.7565 5.72269 2.00331C5.72269 1.25012 5.11211 0.639542 4.35892 0.639542C3.60573 0.639542 2.99515 1.25012 2.99515 2.00331ZM8.08792 6.09315C8.08792 6.84634 8.6985 7.45692 9.45169 7.45692C10.2049 7.45692 10.8155 6.84634 10.8155 6.09315C10.8155 5.33997 10.2049 4.72939 9.45169 4.72939C8.6985 4.72939 8.08792 5.33997 8.08792 6.09315ZM13.1778 6.09315C13.1778 6.84634 13.7883 7.45692 14.5415 7.45692C15.2947 7.45692 15.9053 6.84634 15.9053 6.09315C15.9053 5.33997 15.2947 4.72939 14.5415 4.72939C13.7883 4.72939 13.1778 5.33997 13.1778 6.09315ZM2.99515 6.09315C2.99515 6.84634 3.60573 7.45692 4.35892 7.45692C5.11211 7.45692 5.72269 6.84634 5.72269 6.09315C5.72269 5.33997 5.11211 4.72939 4.35892 4.72939C3.60573 4.72939 2.99515 5.33997 2.99515 6.09315ZM8.08792 10.1859C8.08792 10.9391 8.6985 11.5497 9.45169 11.5497C10.2049 11.5497 10.8155 10.9391 10.8155 10.1859C10.8155 9.43274 10.2049 8.82216 9.45169 8.82216C8.6985 8.82216 8.08792 9.43274 8.08792 10.1859ZM13.1778 10.1859C13.1778 10.9391 13.7883 11.5497 14.5415 11.5497C15.2947 11.5497 15.9053 10.9391 15.9053 10.1859C15.9053 9.43274 15.2947 8.82216 14.5415 8.82216C13.7883 8.82216 13.1778 9.43274 13.1778 10.1859ZM2.99515 10.1859C2.99515 10.9391 3.60573 11.5497 4.35892 11.5497C5.11211 11.5497 5.72269 10.9391 5.72269 10.1859C5.72269 9.43274 5.11211 8.82216 4.35892 8.82216C3.60573 8.82216 2.99515 9.43274 2.99515 10.1859Z" fill="#4B545D"/>
</svg>
