<svg width="24" height="24" viewBox="0 0 24 24" fill="none" xmlns="http://www.w3.org/2000/svg">
<path d="M3.27594 1.48235V0.812783H3.94551V1.48235H3.27594ZM3.27594 22.7083H3.94551V23.3778H3.27594V22.7083ZM3.27594 2.15192H3.21272V0.812783H3.27594V2.15192ZM1.66954 3.69509V20.4955H0.33041V3.69509H1.66954ZM3.21272 22.0387H3.27594V23.3778H3.21272V22.0387ZM2.60637 22.7083V1.48235H3.94551V22.7083H2.60637ZM1.66954 20.4955C1.66954 21.3478 2.36045 22.0387 3.21272 22.0387V23.3778C1.62086 23.3778 0.33041 22.0874 0.33041 20.4955H1.66954ZM3.21272 2.15192C2.36045 2.15192 1.66954 2.84282 1.66954 3.69509H0.33041C0.33041 2.10324 1.62086 0.812783 3.21272 0.812783V2.15192Z" fill="#4B545D"/>
<path d="M20.8516 4.82458V4.15501H20.1821V4.82458H20.8516ZM20.8516 7.73275H20.1821V8.40232H20.8516V7.73275ZM20.8516 5.49414H22.3689V4.15501H20.8516V5.49414ZM22.3316 5.45679V7.10054H23.6707V5.45679H22.3316ZM22.3689 7.06319H20.8516V8.40232H22.3689V7.06319ZM21.5212 7.73275V4.82458H20.1821V7.73275H21.5212ZM22.3316 7.10054C22.3316 7.07991 22.3483 7.06319 22.3689 7.06319V8.40232C23.0879 8.40232 23.6707 7.81949 23.6707 7.10054H22.3316ZM22.3689 5.49414C22.3483 5.49414 22.3316 5.47742 22.3316 5.45679H23.6707C23.6707 4.73784 23.0879 4.15501 22.3689 4.15501V5.49414Z" fill="#4B545D"/>
<path d="M20.8516 10.6413V9.97168H20.1821V10.6413H20.8516ZM20.8516 13.5494H20.1821V14.219H20.8516V13.5494ZM20.8516 11.3108H22.3689V9.97168H20.8516V11.3108ZM22.3316 11.2735V12.9172H23.6707V11.2735H22.3316ZM22.3689 12.8799H20.8516V14.219H22.3689V12.8799ZM21.5212 13.5494V10.6413H20.1821V13.5494H21.5212ZM22.3316 12.9172C22.3316 12.8966 22.3483 12.8799 22.3689 12.8799V14.219C23.0879 14.219 23.6707 13.6362 23.6707 12.9172H22.3316ZM22.3689 11.3108C22.3483 11.3108 22.3316 11.2941 22.3316 11.2735H23.6707C23.6707 10.5545 23.0879 9.97168 22.3689 9.97168V11.3108Z" fill="#4B545D"/>
<path d="M20.8516 16.4577V15.7881H20.1821V16.4577H20.8516ZM20.8516 19.3659H20.1821V20.0354H20.8516V19.3659ZM20.8516 17.1273H22.3689V15.7881H20.8516V17.1273ZM22.3316 17.0899V18.7336H23.6707V17.0899H22.3316ZM22.3689 18.6963H20.8516V20.0354H22.3689V18.6963ZM21.5212 19.3659V16.4577H20.1821V19.3659H21.5212ZM22.3316 18.7336C22.3316 18.713 22.3483 18.6963 22.3689 18.6963V20.0354C23.0879 20.0354 23.6707 19.4526 23.6707 18.7336H22.3316ZM22.3689 17.1273C22.3483 17.1273 22.3316 17.1105 22.3316 17.0899H23.6707C23.6707 16.3709 23.0879 15.7881 22.3689 15.7881V17.1273Z" fill="#4B545D"/>
<path d="M5.68732 1.48235V0.812783H5.01775V1.48235H5.68732ZM5.68732 22.7083H5.01775V23.3778H5.68732V22.7083ZM13.3128 13.1972V12.5277H13.1548L13.0134 12.5983L13.3128 13.1972ZM10.5929 13.1972L10.8923 12.5983L10.7509 12.5277H10.5929V13.1972ZM5.68732 2.15192H16.2288V0.812783H5.68732V2.15192ZM6.35688 22.7083V1.48235H5.01775V22.7083H6.35688ZM16.2288 22.0387H5.68732V23.3778H16.2288V22.0387ZM17.772 20.4955C17.772 21.3478 17.0811 22.0387 16.2288 22.0387V23.3778C17.8207 23.3778 19.1112 22.0874 19.1112 20.4955H17.772ZM17.772 3.69509V20.4955H19.1112V3.69509H17.772ZM16.2288 2.15192C17.0811 2.15192 17.772 2.84282 17.772 3.69509H19.1112C19.1112 2.10324 17.8207 0.812783 16.2288 0.812783V2.15192ZM11.9701 7.40155C12.8053 7.40155 13.504 8.10023 13.504 8.93547H14.8431C14.8431 7.36065 13.5449 6.06242 11.9701 6.06242V7.40155ZM10.4361 8.93547C10.4361 8.09339 11.1072 7.40155 11.9701 7.40155V6.06242C10.354 6.06242 9.09701 7.36749 9.09701 8.93547H10.4361ZM11.9701 10.4694C11.1004 10.4694 10.4361 9.80514 10.4361 8.93547H9.09701C9.09701 10.5447 10.3608 11.8085 11.9701 11.8085V10.4694ZM13.504 8.93547C13.504 9.79833 12.8121 10.4694 11.9701 10.4694V11.8085C13.538 11.8085 14.8431 10.5515 14.8431 8.93547H13.504ZM15.1566 15.8483C15.1566 15.8393 15.1591 15.8256 15.1657 15.8125C15.1717 15.8003 15.177 15.7968 15.1741 15.7992C15.1667 15.8052 15.1241 15.8329 15.0343 15.8329V17.172C15.7198 17.172 16.4957 16.7162 16.4957 15.8483H15.1566ZM15.1566 15.1941V15.8483H16.4957V15.1941H15.1566ZM13.485 13.8668C14.4964 13.8668 15.1566 14.5611 15.1566 15.1941H16.4957C16.4957 13.6237 15.0213 12.5277 13.485 12.5277V13.8668ZM13.3128 13.8668H13.485V12.5277H13.3128V13.8668ZM11.9701 14.1422C12.5143 14.1422 13.0749 14.0648 13.6123 13.7961L13.0134 12.5983C12.7245 12.7428 12.3899 12.8031 11.9701 12.8031V14.1422ZM10.2934 13.7961C10.8332 14.066 11.3952 14.1422 11.9701 14.1422V12.8031C11.512 12.8031 11.1789 12.7416 10.8923 12.5983L10.2934 13.7961ZM10.4207 13.8668H10.5929V12.5277H10.4207V13.8668ZM8.78353 15.1941C8.78353 14.5494 9.42295 13.8668 10.4207 13.8668V12.5277C8.87074 12.5277 7.44439 13.6354 7.44439 15.1941H8.78353ZM8.78353 15.8483V15.1941H7.44439V15.8483H8.78353ZM8.87141 15.8329C8.8106 15.8329 8.7774 15.8123 8.76954 15.8057C8.76646 15.8031 8.77055 15.8056 8.77553 15.8158C8.78103 15.827 8.78353 15.8394 8.78353 15.8483H7.44439C7.44439 16.6989 8.19959 17.172 8.87141 17.172V15.8329ZM15.0343 15.8329H8.87141V17.172H15.0343V15.8329Z" fill="#4B545D"/>
</svg>
