<svg width="22" height="21" viewBox="0 0 22 21" fill="none" xmlns="http://www.w3.org/2000/svg">
<path d="M2 9.98599C2 9.43371 1.55228 8.98599 1 8.98599C0.447715 8.98599 0 9.43371 0 9.98599H2ZM0 19.6334C0 20.1857 0.447715 20.6334 1 20.6334C1.55228 20.6334 2 20.1857 2 19.6334H0ZM0 9.98599V19.6334H2V9.98599H0Z" fill="#4B545D"/>
<path d="M15.333 12.6819C15.333 12.1297 14.8853 11.6819 14.333 11.6819C13.7807 11.6819 13.333 12.1297 13.333 12.6819H15.333ZM13.333 19.3761C13.333 19.9284 13.7807 20.3761 14.333 20.3761C14.8853 20.3761 15.333 19.9284 15.333 19.3761H13.333ZM13.333 12.6819V19.3761H15.333V12.6819H13.333Z" fill="#4B545D"/>
<path d="M8.66687 0.999924C8.66687 0.447639 8.21915 -7.62939e-05 7.66687 -7.62939e-05C7.11459 -7.62939e-05 6.66687 0.447639 6.66687 0.999924H8.66687ZM6.66687 19.3104C6.66687 19.8627 7.11459 20.3104 7.66687 20.3104C8.21915 20.3104 8.66687 19.8627 8.66687 19.3104H6.66687ZM6.66687 0.999924V19.3104H8.66687V0.999924H6.66687Z" fill="#4B545D"/>
<path d="M22 6.39156C22 5.83927 21.5523 5.39156 21 5.39156C20.4477 5.39156 20 5.83927 20 6.39156H22ZM20 19.3861C20 19.9384 20.4477 20.3861 21 20.3861C21.5523 20.3861 22 19.9384 22 19.3861H20ZM20 6.39156V19.3861H22V6.39156H20Z" fill="#4B545D"/>
</svg>
