<svg width="17" height="17" viewBox="0 0 17 17" fill="none" xmlns="http://www.w3.org/2000/svg">
<path d="M15.2188 16.4063L15.9688 13.1563C16.0625 12.8125 15.875 12.4375 15.5313 12.2813L12.0313 10.7813C11.7188 10.6563 11.375 10.75 11.1563 11L9.59375 12.9063C7.21875 11.7813 5.21875 9.8125 4.0625 7.375L5.96875 5.8125C6.21875 5.59375 6.3125 5.25 6.1875 4.9375L4.6875 1.4375C4.53125 1.09375 4.15625 0.9375 3.8125 1L0.5625 1.75C0.21875 1.84375 1.34155e-08 2.125 1.78873e-08 2.5C1.13286e-07 10.5 6.46875 17 14.5 17C14.8438 17 15.125 16.75 15.2188 16.4063Z" fill="#49C185"/>
</svg>
