<svg width="17" height="12" viewBox="0 0 17 12" fill="none" xmlns="http://www.w3.org/2000/svg">
<path d="M5.60645 8.0127V1.04688H7.31543V8.0127C7.31543 8.6735 7.17415 9.23633 6.8916 9.70117C6.60905 10.166 6.22396 10.5215 5.73633 10.7676C5.2487 11.0137 4.69499 11.1367 4.0752 11.1367C3.44173 11.1367 2.87891 11.0296 2.38672 10.8154C1.89909 10.6012 1.51628 10.2731 1.23828 9.83105C0.960286 9.389 0.821289 8.82845 0.821289 8.14941H2.54395C2.54395 8.54134 2.60547 8.85807 2.72852 9.09961C2.85612 9.33659 3.03385 9.50977 3.26172 9.61914C3.49414 9.72396 3.7653 9.77637 4.0752 9.77637C4.37142 9.77637 4.63346 9.71029 4.86133 9.57812C5.09375 9.44141 5.27604 9.24316 5.4082 8.9834C5.54036 8.71908 5.60645 8.39551 5.60645 8.0127ZM14.5273 8.43652C14.5273 8.23145 14.4954 8.04915 14.4316 7.88965C14.3724 7.73014 14.2653 7.58431 14.1104 7.45215C13.9554 7.31999 13.7367 7.19238 13.4541 7.06934C13.1761 6.94173 12.8206 6.81185 12.3877 6.67969C11.9137 6.53385 11.4762 6.37207 11.0752 6.19434C10.6787 6.01204 10.3324 5.80241 10.0361 5.56543C9.73991 5.32389 9.50977 5.04818 9.3457 4.73828C9.18164 4.42383 9.09961 4.06152 9.09961 3.65137C9.09961 3.24577 9.18392 2.87663 9.35254 2.54395C9.52572 2.21126 9.76953 1.92415 10.084 1.68262C10.403 1.43652 10.779 1.2474 11.2119 1.11523C11.6449 0.978516 12.1234 0.910156 12.6475 0.910156C13.3857 0.910156 14.0215 1.04688 14.5547 1.32031C15.0924 1.59375 15.5049 1.96061 15.792 2.4209C16.0837 2.88118 16.2295 3.38932 16.2295 3.94531H14.5273C14.5273 3.61719 14.4567 3.3278 14.3154 3.07715C14.1787 2.82194 13.9691 2.62142 13.6865 2.47559C13.4085 2.32975 13.0553 2.25684 12.627 2.25684C12.2214 2.25684 11.8841 2.31836 11.6152 2.44141C11.3464 2.56445 11.1458 2.73079 11.0137 2.94043C10.8815 3.15007 10.8154 3.38704 10.8154 3.65137C10.8154 3.83822 10.8587 4.00911 10.9453 4.16406C11.0319 4.31445 11.1641 4.45573 11.3418 4.58789C11.5195 4.71549 11.7428 4.83626 12.0117 4.9502C12.2806 5.06413 12.5973 5.1735 12.9619 5.27832C13.5133 5.44238 13.9941 5.62467 14.4043 5.8252C14.8145 6.02116 15.1562 6.24447 15.4297 6.49512C15.7031 6.74577 15.9082 7.0306 16.0449 7.34961C16.1816 7.66406 16.25 8.02181 16.25 8.42285C16.25 8.84212 16.1657 9.22038 15.9971 9.55762C15.8285 9.8903 15.5869 10.1751 15.2725 10.4121C14.9626 10.6445 14.5889 10.8245 14.1514 10.9521C13.7184 11.0752 13.2354 11.1367 12.7021 11.1367C12.2236 11.1367 11.752 11.0729 11.2871 10.9453C10.8268 10.8177 10.4076 10.624 10.0293 10.3643C9.65104 10.0999 9.35026 9.77181 9.12695 9.37988C8.90365 8.9834 8.79199 8.52083 8.79199 7.99219H10.5078C10.5078 8.31576 10.5625 8.59147 10.6719 8.81934C10.7858 9.0472 10.943 9.23405 11.1436 9.37988C11.3441 9.52116 11.5765 9.62598 11.8408 9.69434C12.1097 9.7627 12.3968 9.79688 12.7021 9.79688C13.1032 9.79688 13.4382 9.73991 13.707 9.62598C13.9805 9.51204 14.1855 9.35254 14.3223 9.14746C14.459 8.94238 14.5273 8.7054 14.5273 8.43652Z" fill="white"/>
</svg>
